# Blender v2.82 (sub 7) OBJ File: 'grass.blend'
# www.blender.org
mtllib grass.mtl
o Plane
v 0.003051 -0.999995 1.000000
v 0.002969 -0.999995 -1.000000
v -0.003040 0.999995 -0.732994
v 0.000041 0.000000 1.000000
v 0.003010 -0.999995 -0.000000
v -0.000041 -0.000000 -1.000000
v -0.000348 0.114429 -0.084552
v 0.001546 -0.499998 1.000000
v 0.002990 -0.999995 -0.500000
v -0.001824 0.593450 -0.906548
v 0.000610 -0.197077 0.419898
v -0.001464 0.499998 1.000000
v 0.003031 -0.999995 0.500000
v 0.001464 -0.499998 -1.000000
v -0.001027 0.334708 -0.481802
v 0.002299 -0.749997 1.000000
v 0.002980 -0.999995 -0.750000
v -0.002573 0.843448 -0.821996
v -0.002980 0.999995 0.750000
v -0.000712 0.249999 1.000000
v 0.003020 -0.999995 0.250000
v 0.000712 -0.249999 -1.000000
v -0.003020 0.999995 -0.250000
v 0.000793 -0.249999 1.000000
v 0.003000 -0.999995 -0.250000
v -0.000806 0.254449 -0.977749
v -0.003000 0.999995 0.250000
v -0.001884 0.638744 0.955499
v 0.003041 -0.999995 0.750000
v 0.002217 -0.749997 -1.000000
v -0.003009 0.991095 -0.629847
v -0.002035 0.668464 -0.564924
vt 1.000000 0.750000
vt 1.000000 0.875000
vt 1.000000 1.000000
vt 0.875000 1.000000
vt 0.812500 1.000000
vt 0.687500 1.000000
vt 0.625000 1.000000
vt 0.500000 1.000000
vt 0.375000 1.000000
vt 0.250000 1.000000
vt 0.125000 1.000000
vt 0.000000 0.875000
vt 0.000000 0.750000
vt 0.000000 0.625000
vt 0.000000 0.500000
vt 0.000000 0.375000
vt 0.000000 0.250000
vt 0.000000 0.125000
vt 0.000000 0.000000
vt 0.125000 0.000000
vt 0.250000 0.000000
vt 0.375000 0.000000
vt 0.500000 0.000000
vt 0.625000 0.000000
vt 0.750000 0.000000
vt 0.875000 0.000000
vt 1.000000 0.000000
vt 1.000000 0.125000
vt 1.000000 0.250000
vt 1.000000 0.375000
vt 1.000000 0.500000
vt 1.000000 0.625000
vn 1.0000 0.0030 -0.0000
usemtl None
s off
f 10/1/1 18/2/1 3/3/1 31/4/1 32/5/1 15/6/1 23/7/1 7/8/1 27/9/1 11/10/1 19/11/1 28/12/1 12/13/1 20/14/1 4/15/1 24/16/1 8/17/1 16/18/1 1/19/1 29/20/1 13/21/1 21/22/1 5/23/1 25/24/1 9/25/1 17/26/1 2/27/1 30/28/1 14/29/1 22/30/1 6/31/1 26/32/1
o Plane.001
v 0.999982 -0.999995 -0.006689
v -1.000004 -0.999995 0.000669
v -0.732978 0.999995 0.005707
v 0.999993 0.000000 -0.003679
v -0.000011 -0.999995 -0.003010
v -0.999993 -0.000000 0.003679
v -0.084550 0.114429 0.000656
v 0.999988 -0.499998 -0.005184
v -0.500008 -0.999995 -0.001171
v -0.906535 0.593450 0.005121
v 0.419893 -0.197077 -0.002138
v 0.999999 0.499998 -0.002174
v 0.499986 -0.999995 -0.004850
v -0.999999 -0.499998 0.002174
v -0.481796 0.334708 0.002780
v 0.999985 -0.749997 -0.005937
v -0.750006 -0.999995 -0.000251
v -0.821981 0.843448 0.005563
v 0.750006 0.999995 0.000251
v 0.999996 0.249999 -0.002926
v 0.249987 -0.999995 -0.003930
v -0.999996 -0.249999 0.002926
v -0.249987 0.999995 0.003930
v 0.999990 -0.249999 -0.004431
v -0.250009 -0.999995 -0.002090
v -0.977740 0.254449 0.004363
v 0.250009 0.999995 0.002090
v 0.955500 0.638744 -0.001592
v 0.749984 -0.999995 -0.005769
v -1.000002 -0.749997 0.001421
v -0.629832 0.991095 0.005301
v -0.564912 0.668464 0.004091
vt 1.000000 0.750000
vt 1.000000 0.875000
vt 1.000000 1.000000
vt 0.875000 1.000000
vt 0.812500 1.000000
vt 0.687500 1.000000
vt 0.625000 1.000000
vt 0.500000 1.000000
vt 0.375000 1.000000
vt 0.250000 1.000000
vt 0.125000 1.000000
vt 0.000000 0.875000
vt 0.000000 0.750000
vt 0.000000 0.625000
vt 0.000000 0.500000
vt 0.000000 0.375000
vt 0.000000 0.250000
vt 0.000000 0.125000
vt 0.000000 0.000000
vt 0.125000 0.000000
vt 0.250000 0.000000
vt 0.375000 0.000000
vt 0.500000 0.000000
vt 0.625000 0.000000
vt 0.750000 0.000000
vt 0.875000 0.000000
vt 1.000000 0.000000
vt 1.000000 0.125000
vt 1.000000 0.250000
vt 1.000000 0.375000
vt 1.000000 0.500000
vt 1.000000 0.625000
vn -0.0037 0.0030 -1.0000
usemtl None
s off
f 42/33/2 50/34/2 35/35/2 63/36/2 64/37/2 47/38/2 55/39/2 39/40/2 59/41/2 43/42/2 51/43/2 60/44/2 44/45/2 52/46/2 36/47/2 56/48/2 40/49/2 48/50/2 33/51/2 61/52/2 45/53/2 53/54/2 37/55/2 57/56/2 41/57/2 49/58/2 34/59/2 62/60/2 46/61/2 54/62/2 38/63/2 58/64/2
o Plane.002
v -0.517735 -1.000834 0.979144
v 0.578986 -1.000834 -0.975843
v 0.426685 1.240755 -0.718147
v -0.520677 0.119961 0.977493
v 0.030626 -1.000834 0.001651
v 0.576043 0.119961 -0.977493
v 0.073711 0.248212 -0.082838
v -0.519206 -0.440437 0.978319
v 0.304806 -1.000834 -0.487096
v 0.523052 0.785099 -0.887124
v -0.201992 -0.100924 0.410773
v -0.522148 0.680358 0.976668
v -0.243554 -1.000834 0.490397
v 0.577515 -0.440437 -0.976668
v 0.290900 0.495101 -0.471511
v -0.518470 -0.720635 0.978731
v 0.441896 -1.000834 -0.731469
v 0.475951 1.065297 -0.804888
v -0.386529 1.240755 0.731469
v -0.521413 0.400159 0.977081
v -0.106464 -1.000834 0.246024
v 0.576779 -0.160238 -0.977081
v 0.161831 1.240755 -0.246024
v -0.519941 -0.160238 0.977906
v 0.167716 -1.000834 -0.242723
v 0.563093 0.405147 -0.956164
v -0.112349 1.240755 0.242723
v -0.498154 0.835865 0.932940
v -0.380645 -1.000834 0.734771
v 0.578250 -0.720635 -0.976255
v 0.370150 1.230780 -0.617307
v 0.335498 0.869175 -0.553313
vt 1.000000 0.750000
vt 1.000000 0.875000
vt 1.000000 1.000000
vt 0.875000 1.000000
vt 0.812500 1.000000
vt 0.687500 1.000000
vt 0.625000 1.000000
vt 0.500000 1.000000
vt 0.375000 1.000000
vt 0.250000 1.000000
vt 0.125000 1.000000
vt 0.000000 0.875000
vt 0.000000 0.750000
vt 0.000000 0.625000
vt 0.000000 0.500000
vt 0.000000 0.375000
vt 0.000000 0.250000
vt 0.000000 0.125000
vt 0.000000 0.000000
vt 0.125000 0.000000
vt 0.250000 0.000000
vt 0.375000 0.000000
vt 0.500000 0.000000
vt 0.625000 0.000000
vt 0.750000 0.000000
vt 0.875000 0.000000
vt 1.000000 0.000000
vt 1.000000 0.125000
vt 1.000000 0.250000
vt 1.000000 0.375000
vt 1.000000 0.500000
vt 1.000000 0.625000
vn 0.8721 0.0030 0.4893
usemtl None
s off
f 74/65/3 82/66/3 67/67/3 95/68/3 96/69/3 79/70/3 87/71/3 71/72/3 91/73/3 75/74/3 83/75/3 92/76/3 76/77/3 84/78/3 68/79/3 88/80/3 72/81/3 80/82/3 65/83/3 93/84/3 77/85/3 85/86/3 69/87/3 89/88/3 73/89/3 81/90/3 66/91/3 94/92/3 78/93/3 86/94/3 70/95/3 90/96/3
